<svg xmlns="http://www.w3.org/2000/svg" xmlns:xlink="http://www.w3.org/1999/xlink" version="1.1" id="Calque_1" x="0px" y="0px" viewBox="0 0 689.44 852.65" style="enable-background:new 0 0 689.44 852.65;" xml:space="preserve" height="100px" width="100px" transform="rotate(0) scale(1, 1)">
<style type="text/css">.st0 { fill: #ffffff; }</style>
<g>
	<g>
		<g>
			<path class="st0" d="M254.97,612.33c0,0,262.65-174.85,259.43-612.33H408.12c5.31,107.36-0.97,365.54-176.07,575.63     c-54.23,65.07-67.3,69.58-101.63,95.91c-4.77-31.02-9.54-62.03-14.31-93.05c38.11-29.89,79.06-68.32,117.38-117.38     C370.09,286.22,384.71,89.6,385.22,0H0v694.81h276.25L254.97,612.33z"/>
			<path class="st0" d="M538.57,0c0,0,63.6,422.5-247.7,694.81H687.2V0H538.57z"/>
		</g>
	</g>
	<rect y="732.58" class="st0" width="689.44" height="8.33"/>
	<g>
		<path class="st0" d="M57.97,813.59c-3.11-4.36-8.06-9.04-14.7-13.91c-6.33-4.65-10.4-8-12.09-9.98c-1.48-1.73-2.2-3.7-2.2-6.02    c0-2.24,0.73-4.01,2.22-5.41c1.53-1.44,3.39-2.14,5.67-2.14c2.42,0,4.46,0.57,6.23,1.74c1.89,1.25,4.29,3.83,7.13,7.66l1.27,1.71    l1.67-1.31l7.77-6.08l1.56-1.22l-1.14-1.61c-3.43-4.83-7.01-8.54-10.65-11.03c-3.79-2.59-8.27-3.91-13.33-3.91    c-6.54,0-11.98,2.12-16.15,6.29c-4.17,4.17-6.29,9.34-6.29,15.36c0,2.8,0.54,5.62,1.6,8.39c1.06,2.79,2.78,5.44,5.1,7.89    c2.24,2.36,6.17,5.65,12.01,10.07c5.53,4.19,9.46,7.74,11.66,10.54c2.05,2.61,3.05,5.27,3.05,8.12c0,2.71-1.14,5.03-3.47,7.12    c-2.41,2.14-5.23,3.19-8.64,3.19c-5.23,0-10.14-4.21-14.61-12.53l-1.01-1.88l-1.85,1.06l-8.22,4.73l-1.7,0.98l0.89,1.75    c6.58,12.92,15.87,19.48,27.62,19.48c6.75,0,12.74-2.45,17.8-7.27c5.09-4.85,7.68-10.67,7.68-17.31    C62.86,823,61.21,818.13,57.97,813.59z"/>
		<path class="st0" d="M159.13,784.49c-4.04-6.97-9.66-12.52-16.7-16.47c-7.04-3.95-14.84-5.95-23.18-5.95    c-7.99,0-15.55,2.02-22.47,6.02c-6.93,4-12.47,9.58-16.47,16.58c-3.99,7-6.01,14.69-6.01,22.86c0,8.17,2.02,15.83,6.02,22.76    c4,6.94,9.6,12.46,16.65,16.41c7.03,3.95,14.74,5.95,22.9,5.95c8.17,0,15.84-2.02,22.81-6.01c6.97-4,12.53-9.56,16.52-16.53    c3.99-6.96,6.01-14.64,6.01-22.81C165.21,799.14,163.16,791.46,159.13,784.49z M151.05,807.59c0,9.11-2.98,16.47-9.12,22.5    c-6.14,6.04-13.46,8.97-22.35,8.97c-8.59,0-15.76-3-21.94-9.19c-6.18-6.18-9.19-13.52-9.19-22.45c0-8.94,2.92-16.31,8.93-22.53    c5.99-6.2,13.25-9.21,22.2-9.21c8.74,0,16.01,3.01,22.23,9.19C148.03,791.04,151.05,798.47,151.05,807.59z"/>
		<path class="st0" d="M223.47,811.24h-25.13v39.34h-17.29v-88.8h42.42v15.83h-25.54v17.95h25.54V811.24z"/>
		<path class="st0" d="M254.83,850.06h-16.52v-88.28h16.52V850.06z"/>
		<path class="st0" d="M343.51,850.58h-18.1l-37.53-55.5l-0.24,55.5h-16.31v-88.67h16.43l37.65,55.72l-0.36-55.72h18.46V850.58z"/>
		<path class="st0" d="M522.96,850.58h-18.1l-37.53-55.5l-0.24,55.5h-16.31v-88.67h16.43l37.65,55.72l-0.36-55.72h18.46V850.58z"/>
		<path class="st0" d="M438.45,850.58h-17.48l-6.4-17.86h-35.29l-6.6,17.86h-17.3l34.02-88.67h16.51L438.45,850.58z M406.73,811.9    l-9.53-28.78l-10.29,28.78H406.73z"/>
		<path class="st0" d="M621.26,831.42l-7.42-5.65l-1.55-1.18l-1.27,1.48c-7.34,8.54-15.7,12.68-25.57,12.68    c-9.81,0-17.88-2.99-23.99-8.89c-6.17-5.96-9.17-13.2-9.17-22.11c0-8.92,3.07-16.24,9.4-22.39c6.34-6.17,13.68-9.16,22.43-9.16    c10.75,0,19.54,4.32,26.88,13.21l1.28,1.55l1.59-1.23l7.31-5.65l1.58-1.22l-1.17-1.62c-4.32-6.02-9.78-10.65-16.23-13.79    c-6.43-3.12-13.78-4.7-21.84-4.7c-8.11,0-15.77,1.95-22.77,5.8c-7.02,3.86-12.6,9.26-16.58,16.06c-3.97,6.79-5.99,14.3-5.99,22.32    c0,12.92,4.34,23.78,12.91,32.27c8.56,8.49,19.68,12.79,33.03,12.79c15.82,0,28.45-5.94,37.53-17.64l1.28-1.65L621.26,831.42z"/>
		<path class="st0" d="M683.61,778.54h-29.63v16.54h29.26v16.54h-29.26v23.06h29.26v16.38H636V762.1h47.61V778.54z"/>
	</g>
</g>
</svg>